<?xml version="1.0" standalone="no"?>
<!DOCTYPE svg PUBLIC "-//W3C//DTD SVG 20010904//EN"
 "http://www.w3.org/TR/2001/REC-SVG-20010904/DTD/svg10.dtd">
<svg version="1.0" xmlns="http://www.w3.org/2000/svg"
 width="500.000000pt" height="500.000000pt" viewBox="0 0 500.000000 500.000000"
 preserveAspectRatio="xMidYMid meet">
<metadata>
Created by potrace 1.15, written by Peter Selinger 2001-2017
</metadata>
<g transform="translate(0.000000,500.000000) scale(0.100000,-0.100000)"
fill="#000000" stroke="none">
<path d="M2002 3078 c-109 -13 -253 -53 -345 -93 -45 -20 -86 -37 -92 -37 -5
0 -41 13 -80 29 -246 103 -599 122 -891 48 -259 -66 -457 -203 -542 -374 -34
-69 -37 -81 -36 -160 1 -106 24 -173 92 -256 116 -144 299 -243 557 -302 65
-15 123 -18 310 -18 207 1 239 3 325 24 102 26 197 59 262 92 l41 21 79 -32
c185 -73 325 -94 578 -87 212 6 290 19 446 77 l81 30 77 -30 c180 -72 324 -94
576 -87 217 6 325 26 470 88 41 17 84 32 95 32 11 0 59 -17 106 -37 182 -76
329 -100 584 -93 234 6 370 31 277 52 -15 3 -48 19 -72 35 -32 22 -57 30 -88
30 -32 0 -49 6 -67 25 -14 13 -25 29 -25 34 0 6 -18 20 -39 31 -22 11 -42 28
-45 38 -6 16 -21 20 -114 25 -90 5 -270 32 -280 41 -1 2 13 28 33 57 89 135
87 303 -5 440 -21 32 -26 46 -17 51 32 17 254 39 399 39 l158 0 6 25 c5 18 0
31 -21 52 -15 15 -44 50 -65 79 -43 56 -63 64 -205 84 -107 15 -291 -23 -439
-90 -62 -28 -63 -28 -97 -10 -282 150 -767 170 -1101 45 -53 -20 -92 -30 -100
-25 -26 17 -145 59 -223 78 -156 39 -388 51 -563 29z m438 -264 c63 -9 116
-17 119 -19 2 -3 -11 -21 -29 -42 -18 -20 -47 -67 -64 -103 -26 -55 -31 -77
-31 -145 0 -92 21 -162 66 -224 16 -23 29 -43 29 -45 0 -2 -30 -10 -67 -17
-91 -18 -431 -18 -540 0 -46 7 -83 15 -83 17 0 2 17 35 38 75 36 69 37 75 37
173 0 90 -3 108 -28 160 -15 33 -43 79 -62 102 l-35 42 48 10 c55 12 214 31
287 35 77 4 189 -3 315 -19z m1140 -5 c52 -6 125 -17 161 -26 l67 -16 -32 -41
c-100 -131 -110 -303 -26 -438 33 -54 39 -48 -80 -73 -144 -31 -482 -30 -607
1 l-23 6 29 33 c85 97 116 260 71 377 -12 32 -37 80 -56 108 -19 27 -34 51
-34 54 0 3 179 23 265 29 52 4 147 -1 265 -14z m-2420 -10 c47 -5 109 -14 138
-20 l52 -10 -20 -29 c-51 -72 -74 -142 -75 -225 0 -94 20 -161 70 -231 25 -34
31 -50 22 -55 -88 -48 -529 -61 -714 -21 -182 39 -295 88 -375 160 -100 91
-93 193 20 275 190 139 521 198 882 156z m1686 -122 c152 -104 138 -241 -34
-343 l-42 -25 -33 22 c-167 115 -173 233 -17 338 34 22 66 41 70 41 4 0 30
-15 56 -33z m-1214 -39 c107 -83 105 -197 -4 -285 l-40 -33 -32 22 c-49 34
-96 80 -113 112 -35 67 -8 149 69 205 46 34 52 33 120 -21z m2418 12 c81 -64
103 -143 60 -217 -23 -41 -93 -103 -116 -103 -20 0 -92 68 -111 103 -21 42
-18 101 7 142 17 27 103 103 119 105 2 0 20 -14 41 -30z"/>
</g>
</svg>
